<svg xmlns="http://www.w3.org/2000/svg" viewBox="0 0 1847.55 1847.77"><defs><style>.cls-1{fill:#812926;}</style></defs><title>circle</title><g id="Vrstva_2" data-name="Vrstva 2"><g id="Vrstva_1-2" data-name="Vrstva 1"><path class="cls-1" d="M1847.55,923.43v.76a987.76,987.76,0,0,1-11.43,144.06c-57.28,375.42-355.95,687-728.11,761.64-380.44,76.36-776.71-96.59-977.54-429.18S-35.82,635.06,209.85,335.37C454.64,37,876.28-78.23,1239,54.78A915.37,915.37,0,0,1,1344.09,101,34.56,34.56,0,0,1,1357,150.65l-.38.57a32.27,32.27,0,0,1-41.76,11.13,847,847,0,0,0-224.82-79.43c-350.42-70.34-716.8,92.69-901.3,398.15C2.86,788.92,31.87,1195,263.23,1471.3c230.47,275.57,615.31,380.57,953.55,258.11,336.24-121.71,561.44-449.77,563.32-805.6-.25-45.34-3.27-90.68-10.55-135.52C1745.11,638.74,1681.27,501,1589,386.87c-10.76-13.3-9.2-32.36,2.9-44.45l.48-.48c13.77-13.87,36.77-12.26,49,3C1770.6,506.08,1846.37,709.3,1847.55,923.43Z"/></g></g></svg>